<svg xmlns="http://www.w3.org/2000/svg" viewBox="11273.85 -6456.25 18.601 17.5">
  <defs>
    <style>
      .cls-1 {
        stroke: #000;
        stroke-miterlimit: 10;
        stroke-width: 0.5px;
      }
    </style>
  </defs>
  <g id="Gruppe_579" data-name="Gruppe 579" transform="translate(11200 -6607)">
    <g id="Gruppe_186" data-name="Gruppe 186" transform="translate(-1434.7 -305)">
      <path id="Pfad_829" data-name="Pfad 829" class="cls-1" d="M1511.8,459.3c-1.7.5-3,2.6-3,5.2a5.922,5.922,0,0,0,2,4.7c.2,2.1,1.4,3.8,3,3.8,1.7,0,3-1.9,3-4.2v-9.2c0-2-1.1-3.5-2.5-3.5C1513,456,1511.9,457.5,1511.8,459.3Zm4,.1v9.2c0,1.6-.9,2.8-2,2.8s-2-1.3-2-2.8v-.5a3.908,3.908,0,0,1-2-3.7c0-2.2,1.2-3.9,2.8-3.9h.2v-1.1c0-1.2.7-2.1,1.5-2.1C1515.2,457.3,1515.8,458.3,1515.8,459.4Z"/>
      <path id="Pfad_830" data-name="Pfad 830" class="cls-1" d="M1521.4,456c-1.4,0-2.5,1.6-2.5,3.5v9.2c0,2.3,1.4,4.2,3,4.2s2.8-1.7,3-3.8a5.921,5.921,0,0,0,2-4.7c0-2.6-1.3-4.7-3-5.2C1523.8,457.5,1522.7,456,1521.4,456Zm-.1,1.3c.8,0,1.5.9,1.5,2.1v1.1h.2c1.5,0,2.8,1.7,2.8,3.9,0,1.8-.8,3.3-2,3.7v.5c0,1.6-.9,2.8-2,2.8s-2-1.3-2-2.8v-9.2C1519.8,458.3,1520.5,457.3,1521.3,457.3Z"/>
    </g>
  </g>
</svg>
