<svg xmlns="http://www.w3.org/2000/svg" viewBox="11539 -6448.1 19 18">
  <defs>
    <style>
      .cls-1 {
        fill: none;
        stroke: #000;
        stroke-miterlimit: 10;
        stroke-width: 2px;
      }
    </style>
  </defs>
  <g id="Gruppe_571" data-name="Gruppe 571" transform="translate(8476 -6834)">
    <path id="Pfad_898" data-name="Pfad 898" d="M3073,388a6.957,6.957,0,0,1,7,7,10.041,10.041,0,0,1-.4,2.4l1.5,1.5a8.6,8.6,0,0,0,.9-3.9,8.963,8.963,0,0,0-9-9,8.6,8.6,0,0,0-3.9.9l1.5,1.5A10.037,10.037,0,0,1,3073,388Z"/>
    <circle id="Ellipse_73" data-name="Ellipse 73" cx="3" cy="3" r="3" transform="translate(3065 385.9)"/>
    <path id="Pfad_899" data-name="Pfad 899" d="M3072,401.8a6.957,6.957,0,0,1-7-7,9.272,9.272,0,0,1,.4-2.4l-1.5-1.5a8.6,8.6,0,0,0-.9,3.9,8.963,8.963,0,0,0,9,9,8.6,8.6,0,0,0,3.9-.9l-1.5-1.5A10.035,10.035,0,0,1,3072,401.8Z"/>
    <circle id="Ellipse_74" data-name="Ellipse 74" class="cls-1" cx="2" cy="2" r="2" transform="translate(3075 398.9)"/>
  </g>
</svg>
