<svg xmlns="http://www.w3.org/2000/svg" viewBox="11585 -6451 14 22">
  <g id="Gruppe_573" data-name="Gruppe 573" transform="translate(-1291 428)">
    <path id="Pfad_900" data-name="Pfad 900" d="M3070,459a1,1,0,0,0-2,0v4h-2v6h6v-6h-2Z" transform="translate(9810 -7337)"/>
    <path id="Pfad_901" data-name="Pfad 901" d="M3074,473a2.913,2.913,0,0,0,2,2.8V480h2v-4.2a2.913,2.913,0,0,0,2-2.8v-2h-6Z" transform="translate(9810 -7337)"/>
    <path id="Pfad_902" data-name="Pfad 902" d="M3066,473a2.913,2.913,0,0,0,2,2.8V480h2v-4.2a2.913,2.913,0,0,0,2-2.8v-2h-6Z" transform="translate(9810 -7337)"/>
    <path id="Pfad_903" data-name="Pfad 903" d="M3078,459a1,1,0,0,0-2,0v4h-2v6h6v-6h-2Z" transform="translate(9810 -7337)"/>
  </g>
</svg>
